<svg version="1.2" xmlns="http://www.w3.org/2000/svg" viewBox="0 0 1529 1410" width="1529" height="1410">
	<title>asana-svg</title>
	<style>
		.s0 { fill: #f06a6a } 
	</style>
	<path id="Layer" fill-rule="evenodd" class="s0" d="m1431.3 843.7c62.2 62.1 97.1 146.4 97.1 234.4 0 87.9-34.9 172.2-97.1 234.4-62.1 62.2-146.4 97.1-234.3 97.1-87.9 0-172.2-34.9-234.3-97.1-62.2-62.2-97.1-146.5-97.1-234.4 0-88 34.9-172.3 97.1-234.4 62.1-62.2 146.4-97.1 234.3-97.2 87.9 0.1 172.2 35 234.3 97.2zm-863.9 1.6c61.1 62 95.4 145.6 95.4 232.8 0 87.1-34.3 170.7-95.4 232.8-61.2 62-144.3 97.4-231.4 98.7-88.7 1.2-174.1-33.2-237.3-95.5-63.1-62.3-98.7-147.3-98.7-236 0-88.8 35.6-173.8 98.7-236.1 63.2-62.3 148.6-96.7 237.3-95.4 87.1 1.2 170.2 36.7 231.4 98.7zm530.5-513.1c0 87.9-35 172.2-97.1 234.4-62.1 62.1-146.4 97.1-234.3 97.1-87.9 0-172.2-35-234.4-97.1-62.1-62.2-97-146.5-97-234.4 0-88 34.9-172.3 97-234.5 62.2-62.1 146.5-97.1 234.4-97.1 87.9 0 172.2 35 234.3 97.1 62.1 62.2 97.1 146.5 97.1 234.5z"/>
</svg>