<svg id="Layer_1" data-name="Layer 1" xmlns="http://www.w3.org/2000/svg" viewBox="0 0 395.61 185.28"><defs><style>.cls-1{font-size:60px;}.cls-1,.cls-12{font-family:MyriadPro-Regular, Myriad Pro;}.cls-2{letter-spacing:-0.09em;}.cls-3{fill:#8e1c42;}.cls-4{fill:#ff4d8c;}.cls-5{fill:#e04886;}.cls-6{fill:#fff;}.cls-7{fill:#2f4649;}.cls-8{fill:#56badb;fill-opacity:0.22;}.cls-9{fill:#a2afc9;}.cls-10{fill:#8591a9;}.cls-11{fill:#ffa600;}.cls-12{font-size:52.26px;}.cls-13{letter-spacing:0em;}</style></defs><text id="SOLTICZKI" class="cls-1" transform="translate(0 97.18)"><tspan xml:space="preserve">S    </tspan><tspan class="cls-2" x="80.46" y="0">L</tspan><tspan x="103.5" y="0">TICZKI</tspan></text><path class="cls-3" d="M660.16,314.45s-6.54,6.26,1.7,12.21Z" transform="translate(-605.93 -239.97)"/><path class="cls-4" d="M663.54,312.74a2.18,2.18,0,0,0-.65-2.64s.48,1.58-.27,2.33Z" transform="translate(-605.93 -239.97)"/><path class="cls-5" d="M663.37,312.77a1.71,1.71,0,0,0,.34-.35.25.25,0,0,0,0-.09c0-.12.1-.11.17-.16s0-.08.08-.14.09,0,.14-.08a1.58,1.58,0,0,1,.59-.51,3.55,3.55,0,0,1,.55-.28l0,.1-.37.25a7,7,0,0,0-.56.48.43.43,0,0,0-.13.09s0,.06,0,.08-.12.07-.16.15,0,.11,0,.15-.11,0-.15.07a.79.79,0,0,0-.17.41C663.52,313,663.44,313,663.37,312.77Z" transform="translate(-605.93 -239.97)"/><path class="cls-4" d="M662.25,312.2a8.73,8.73,0,0,1-.08-2.8s-1.64.6-.83,3.24Z" transform="translate(-605.93 -239.97)"/><path class="cls-5" d="M661.07,312.43a2.57,2.57,0,0,0-.18-.74c0-.07-.13-.12-.17-.21s0-.23-.11-.37a.59.59,0,0,1-.12-.22.32.32,0,0,0,0-.14,1.48,1.48,0,0,0-.13-.21,7,7,0,0,0-1.12-1.69l.07-.08a5.36,5.36,0,0,1,1.25,1.66c0,.08.05.14.1.24s.11.07.16.21a.56.56,0,0,0,.08.25c.07.11.17.18.17.35a.61.61,0,0,0,0,.14,3.91,3.91,0,0,0,.36.7Z" transform="translate(-605.93 -239.97)"/><path class="cls-5" d="M659,308.88a.24.24,0,0,0,.33,0,.25.25,0,0,0,0-.33.24.24,0,0,0-.33,0A.23.23,0,0,0,659,308.88Z" transform="translate(-605.93 -239.97)"/><path class="cls-5" d="M665.07,311.31a.23.23,0,1,0,.4-.24.23.23,0,0,0-.4.24Z" transform="translate(-605.93 -239.97)"/><circle class="cls-5" cx="662.1" cy="314.1" r="1.98" transform="translate(-676.65 73.41) rotate(-25.32)"/><path class="cls-4" d="M664.3,314.67s3.81,4.63,3.26,8.45a4.42,4.42,0,0,1-5.14,3.9c-1-.29-4.95-5-3.65-9.39a11.64,11.64,0,0,1,1.62-3.53A3,3,0,0,1,664.3,314.67Z" transform="translate(-605.93 -239.97)"/><path d="M663.6,313.59a.46.46,0,1,1,.11-.64A.45.45,0,0,1,663.6,313.59Z" transform="translate(-605.93 -239.97)"/><path class="cls-6" d="M663.39,313.3a.12.12,0,0,1-.15,0,.11.11,0,0,1,0-.15.1.1,0,0,1,.14,0A.11.11,0,0,1,663.39,313.3Z" transform="translate(-605.93 -239.97)"/><path class="cls-6" d="M663.71,313l0,0a.11.11,0,0,0-.08,0,.21.21,0,0,0-.05.28.2.2,0,0,0,.24.06A.47.47,0,0,0,663.71,313Z" transform="translate(-605.93 -239.97)"/><polygon points="56.14 69.79 56.52 70.02 56.1 70.25 56.14 69.79"/><polygon points="57.2 71.4 56.81 71.24 57.14 70.95 57.2 71.4"/><polygon points="57.14 70.86 56.75 70.7 57.08 70.41 57.14 70.86"/><polygon points="56.15 70.21 56.53 70.44 56.12 70.66 56.15 70.21"/><path class="cls-3" d="M665.9,321.41a.23.23,0,1,1-.27-.37.23.23,0,0,1,.27.37Z" transform="translate(-605.93 -239.97)"/><path d="M653.43,315.29a.17.17,0,0,1,.23.1h0a1.67,1.67,0,0,0,.33.47,2.93,2.93,0,0,0,.46.4,4.21,4.21,0,0,0,.52.34,4.74,4.74,0,0,0,.5.26c.12-.21.25-.41.38-.61s.29-.42.43-.64l.45-.62a3.55,3.55,0,0,1,.23-.31.57.57,0,0,1,.14-.13.52.52,0,0,1,.18-.1h0l.05-.1.19,0,.25,0,.24.06.49.12.48.13.48.15.06,0a.49.49,0,0,1-.43.87l-.44-.24c-.15-.07-.29-.16-.44-.24l-.43-.26-.21-.14h0a1,1,0,0,1-.1.17l-.26.29c-.17.19-.34.38-.52.56s-.35.37-.54.55a7.14,7.14,0,0,1-.56.54l0,0,0,0h0a5.36,5.36,0,0,1-.6-.24c-.2-.1-.39-.2-.57-.31a4.19,4.19,0,0,1-.54-.4,2.32,2.32,0,0,1-.43-.54h0A.18.18,0,0,1,653.43,315.29Z" transform="translate(-605.93 -239.97)"/><path d="M652.46,319.13a.17.17,0,0,1,.23.09h0a1.87,1.87,0,0,0,.33.48,2.93,2.93,0,0,0,.46.4,5.8,5.8,0,0,0,.52.34l.5.26c.12-.21.25-.41.38-.61s.29-.43.43-.64l.45-.63.23-.3.14-.14a.77.77,0,0,1,.18-.1h0l0-.08.2,0,.2,0,.2,0,.39.08.39.09.39.11.07,0a.49.49,0,0,1,.21.65.48.48,0,0,1-.65.21l-.35-.19-.34-.21-.34-.22-.15-.11h0a.86.86,0,0,1-.1.16,3.58,3.58,0,0,1-.26.29l-.52.57c-.17.19-.35.37-.53.55l-.57.54-.05,0,0,0h0a4,4,0,0,1-.6-.25,3.91,3.91,0,0,1-.57-.31,2.9,2.9,0,0,1-.53-.39,2.12,2.12,0,0,1-.44-.54h0A.18.18,0,0,1,652.46,319.13Z" transform="translate(-605.93 -239.97)"/><path d="M653.08,322.4a.18.18,0,0,1,.24.09h0a1.65,1.65,0,0,0,.33.48,3,3,0,0,0,.46.4,4.65,4.65,0,0,0,.52.34l.5.26c.12-.21.25-.41.38-.61s.28-.43.43-.64l.44-.63.23-.31.14-.13.19-.1h0l0-.07h.2l.19,0,.19,0,.38.06.37.07.36.08.09,0a.49.49,0,0,1-.42.88l-.33-.18-.33-.18-.33-.2-.14-.1v0a.54.54,0,0,1-.1.16l-.25.29-.52.57-.54.55-.56.54-.05,0,0,0h0c-.2-.07-.4-.16-.6-.25a5.33,5.33,0,0,1-.57-.31,3.79,3.79,0,0,1-.53-.39,2.09,2.09,0,0,1-.43-.54v0A.17.17,0,0,1,653.08,322.4Z" transform="translate(-605.93 -239.97)"/><path d="M666.21,317.84l.46.24.45.25a4.83,4.83,0,0,1,.45.26l.23.14.22.14.31.22-.26.13h0a.77.77,0,0,1-.07.16.52.52,0,0,1-.1.11l-.24.17c-.17.11-.33.23-.5.33l-.51.32-.4.23.4.15.56.17a3.75,3.75,0,0,0,.57.09,2.53,2.53,0,0,0,.55,0h0a.18.18,0,0,1,0,.35,3.33,3.33,0,0,1-.63,0,5.69,5.69,0,0,1-.59-.16,5.42,5.42,0,0,1-.56-.22,4.53,4.53,0,0,1-.54-.27h0l-.1,0,.08-.1.41-.45.42-.42.44-.41.07-.06h0l-.51-.12-.5-.14a4.58,4.58,0,0,1-.49-.15l-.06,0a.47.47,0,0,1-.22-.64A.48.48,0,0,1,666.21,317.84Z" transform="translate(-605.93 -239.97)"/><path d="M667.37,322.71l.46.3.46.31.46.33.22.16.22.18.06.05,0,.24a.48.48,0,0,1,0,.18.77.77,0,0,1-.07.16l-.19.27-.41.54-.42.52c-.13.16-.26.32-.4.47l0,0,.08.06.2.11a3,3,0,0,0,.41.19l.21.08.22.06.22.06.22.06h0a.16.16,0,0,1,.1.22.17.17,0,0,1-.23.11l-.22-.08-.22-.09-.22-.09-.22-.11a3.38,3.38,0,0,1-.41-.24l-.2-.15-.09-.08-.08-.1,0,0,0-.06c.09-.21.19-.41.28-.62l.31-.6.32-.59c.06-.09.11-.19.17-.29l0,0-.21-.07-.53-.19-.51-.2c-.17-.07-.35-.14-.51-.22l0,0a.48.48,0,1,1,.5-.82Z" transform="translate(-605.93 -239.97)"/><path d="M665.8,325.41l.49.31.49.33.48.34.24.17.23.18.06.32a.41.41,0,0,1,0,.16.44.44,0,0,1-.08.11l-.19.2-.41.37-.42.36a3.57,3.57,0,0,1-.38.3l.13.11.22.15a4,4,0,0,0,.46.24,4.19,4.19,0,0,0,.49.2l.25.07.25.07h0a.18.18,0,0,1-.13.33l-.26-.09-.25-.11a4.66,4.66,0,0,1-.5-.25,4.53,4.53,0,0,1-.46-.3l-.21-.18-.2-.21h0l0,0,0-.07.3-.47c.1-.16.21-.31.32-.46l.33-.44.13-.15-.2-.07-.55-.2-.55-.22-.53-.23-.05,0a.48.48,0,1,1,.5-.82Z" transform="translate(-605.93 -239.97)"/><path class="cls-5" d="M667.56,323.12c.55-3.82-3.26-8.45-3.26-8.45a3.33,3.33,0,0,0-1.12-.82c1,1.66,4.63,8.57-1.32,12.81a1.86,1.86,0,0,0,.56.36A4.42,4.42,0,0,0,667.56,323.12Z" transform="translate(-605.93 -239.97)"/><path d="M661.67,313.19a.47.47,0,1,1,.1-.65A.47.47,0,0,1,661.67,313.19Z" transform="translate(-605.93 -239.97)"/><path class="cls-6" d="M663.18,319.68a4.71,4.71,0,0,1,.82.38,6.06,6.06,0,0,1,.76.48,6.23,6.23,0,0,1,.7.57,4,4,0,0,1,.58.66l.35-.35-.77-.52-.76-.5c-.26-.17-.51-.33-.75-.51a7.83,7.83,0,0,1-.72-.57Z" transform="translate(-605.93 -239.97)"/><path class="cls-6" d="M666.25,321.74a.21.21,0,0,1-.08-.28.21.21,0,0,1,.29-.08.21.21,0,0,1,.07.29A.2.2,0,0,1,666.25,321.74Z" transform="translate(-605.93 -239.97)"/><path class="cls-6" d="M666.05,321.93a.2.2,0,0,1-.08-.28.21.21,0,0,1,.29-.08.21.21,0,0,1,.07.29A.2.2,0,0,1,666.05,321.93Z" transform="translate(-605.93 -239.97)"/><path class="cls-6" d="M663.25,319.64a.21.21,0,0,1-.15-.25.21.21,0,0,1,.26-.15.21.21,0,0,1,.15.25A.21.21,0,0,1,663.25,319.64Z" transform="translate(-605.93 -239.97)"/><path class="cls-6" d="M663.12,319.88a.21.21,0,1,1,.1-.4.2.2,0,0,1,.15.25A.21.21,0,0,1,663.12,319.88Z" transform="translate(-605.93 -239.97)"/><path class="cls-6" d="M666.52,320c-.3.09-.6.16-.89.22s-.6.12-.89.17l-.9.15-.92.15.17.47a4.57,4.57,0,0,1,.81-.37,7.94,7.94,0,0,1,.87-.24,8.67,8.67,0,0,1,.89-.13,4.5,4.5,0,0,1,.9,0Z" transform="translate(-605.93 -239.97)"/><path class="cls-6" d="M666.64,320.24a.21.21,0,0,1-.29-.07.21.21,0,0,1,.06-.28.2.2,0,0,1,.29.06A.22.22,0,0,1,666.64,320.24Z" transform="translate(-605.93 -239.97)"/><path class="cls-6" d="M666.71,320.5a.19.19,0,0,1-.28-.06.2.2,0,0,1,.06-.29.21.21,0,0,1,.29.07A.2.2,0,0,1,666.71,320.5Z" transform="translate(-605.93 -239.97)"/><path class="cls-6" d="M663.08,321a.22.22,0,0,1-.29-.06.21.21,0,0,1,.07-.29.21.21,0,0,1,.22.35Z" transform="translate(-605.93 -239.97)"/><path class="cls-6" d="M663.16,321.26a.21.21,0,0,1-.29-.07.21.21,0,0,1,.06-.28.2.2,0,0,1,.29.06A.22.22,0,0,1,663.16,321.26Z" transform="translate(-605.93 -239.97)"/><path class="cls-6" d="M665.54,319.57a1.59,1.59,0,0,0-.37-2.41c-.56-.45-1.78-.62-2,.1s.87,1.82.87,1.82l-.13.6,1.76.5Zm-1.52-1a.39.39,0,0,1,0-.56.46.46,0,1,1,0,.56Zm.63.61.17-.27.22.37Zm.5-.28a.34.34,0,0,1,0-.46.36.36,0,0,1,.43.57A.34.34,0,0,1,665.15,318.93Z" transform="translate(-605.93 -239.97)"/><path class="cls-6" d="M661.45,312.9a.1.1,0,0,1-.14,0,.1.1,0,0,1,0-.14.11.11,0,0,1,.14,0A.11.11,0,0,1,661.45,312.9Z" transform="translate(-605.93 -239.97)"/><path class="cls-6" d="M661.25,312.4v0l-.12.06a.45.45,0,0,0-.15.19.18.18,0,0,0,.24,0A.19.19,0,0,0,661.25,312.4Z" transform="translate(-605.93 -239.97)"/><path id="path53538" class="cls-7" d="M685.73,349.19c5.24,0,9.38,4.58,9.38,10.08s-4.14,10.08-9.38,10.08H673.06c-5.24,0-9.38-4.58-9.38-10.08s4.14-10.08,9.38-10.08Zm0,2.78H673.06c-3.62,0-6.6,3.17-6.6,7.3s3,7.3,6.6,7.3h12.67c3.62,0,6.6-3.17,6.6-7.3S689.35,352,685.73,352Z" transform="translate(-605.93 -239.97)"/><path id="rect53540" class="cls-6" d="M685.73,350.58H673.06c-4.41,0-8,3.89-8,8.69h0c0,4.8,3.58,8.69,8,8.69h12.67c4.41,0,8-3.89,8-8.69h0C693.72,354.47,690.14,350.58,685.73,350.58Z" transform="translate(-605.93 -239.97)"/><g id="g53542"><circle id="circle53544" class="cls-8" cx="661.86" cy="318.77" r="20.91" transform="translate(-641.75 -151.24) rotate(-7.47)"/><rect id="rect53546" class="cls-7" x="665.26" y="338.79" width="5.6" height="9.17" transform="translate(-671.41 -58.26) rotate(-14.77)"/><path id="path53548" class="cls-9" d="M655.71,296.54a22.89,22.89,0,1,1-16.29,28A22.93,22.93,0,0,1,655.71,296.54Zm1,3.8a19,19,0,1,0,23.16,13.5A18.92,18.92,0,0,0,656.72,300.34Z" transform="translate(-605.93 -239.97)"/><rect id="rect53550" class="cls-10" x="667.91" y="343.52" width="9.98" height="36.35" rx="3.55" transform="translate(-675.92 -56.42) rotate(-14.77)"/><path id="path53552" class="cls-7" d="M669.5,343.17a4.15,4.15,0,0,1,5.07,3L682,374.4a4.16,4.16,0,0,1-3,5.08l-2.78.73a4.15,4.15,0,0,1-5.07-2.95L663.76,349a4.16,4.16,0,0,1,3-5.08Zm.3,1.16-2.77.74a2.93,2.93,0,0,0-2.11,3.6L672.38,377a2.94,2.94,0,0,0,3.61,2.1l2.78-.73a2.94,2.94,0,0,0,2.1-3.61l-7.46-28.28a2.94,2.94,0,0,0-3.61-2.1Z" transform="translate(-605.93 -239.97)"/><circle id="circle53554" class="cls-6" cx="56.54" cy="62.79" r="1.73"/><path id="path53556" class="cls-6" d="M666.3,302.6a1.33,1.33,0,0,0-1.35,1.29,1.3,1.3,0,0,0,.93,1.29,17.91,17.91,0,0,1,4,1.93,1.32,1.32,0,0,0,1.41-2.23l0,0a20.78,20.78,0,0,0-4.57-2.18,1.78,1.78,0,0,0-.39-.07Z" transform="translate(-605.93 -239.97)"/><path id="path53558" class="cls-7" d="M662.57,295.2a23.49,23.49,0,1,0,21.7,17.48,23.42,23.42,0,0,0-21.7-17.48Zm-.05,1.2a22.3,22.3,0,1,1-6.65.72A22.35,22.35,0,0,1,662.52,296.4Zm-.1,2.73a19.56,19.56,0,1,0,18,14.56,19.37,19.37,0,0,0-18-14.56Zm0,1.19a18.42,18.42,0,1,1-5.5.61,18.62,18.62,0,0,1,5.5-.61Z" transform="translate(-605.93 -239.97)"/></g><path id="path53560" class="cls-7" d="M689.29,352a11.11,11.11,0,0,1,6.24,1.94h30.54v26.76h-26.5a11.42,11.42,0,0,1-10.28,6.67H675.37a11.37,11.37,0,0,1-9.85-5.84h-.93c-3.2,0-5.62-2.91-5.62-6.26a6.72,6.72,0,0,1,.72-3,6.38,6.38,0,0,1-3.2-5.66,6.56,6.56,0,0,1,1.63-4.41,6.72,6.72,0,0,1-1.24-3.92c0-3.35,2.42-6.26,5.63-6.26h26.78Zm0,2.78H662.51c-1.49,0-2.85,1.43-2.85,3.48a3.71,3.71,0,0,0,1.32,2.94l1.57,1.23-1.71,1a3.65,3.65,0,0,0-1.58,3.12A3.22,3.22,0,0,0,662,370l3.34.15-2.46,2.26a3.8,3.8,0,0,0-1.14,2.79c0,2.05,1.36,3.48,2.85,3.48h2.61l.38.8a8.63,8.63,0,0,0,7.79,5h13.92a8.68,8.68,0,0,0,8.1-5.76l.34-.9h25.56V356.69H694.68l-.36-.28a8.43,8.43,0,0,0-5-1.66Z" transform="translate(-605.93 -239.97)"/><path id="path53562" class="cls-6" d="M724.68,355.3H693.73v24h30.95Z" transform="translate(-605.93 -239.97)"/><path id="path53564" class="cls-11" d="M704.42,353.5v36h36v-36Z" transform="translate(-605.93 -239.97)"/><path id="rect53566" class="cls-6" d="M689.29,353.36H675.37a10.32,10.32,0,0,0-10.09,10.53v11.53A10.32,10.32,0,0,0,675.37,386h13.92a10.32,10.32,0,0,0,10.1-10.53V363.89A10.32,10.32,0,0,0,689.29,353.36Z" transform="translate(-605.93 -239.97)"/><path id="rect53568" class="cls-6" d="M679.32,353.36H662.51c-2.34,0-4.24,2.18-4.24,4.87h0c0,2.69,1.9,4.87,4.24,4.87h16.81c2.34,0,4.24-2.18,4.24-4.87h0C683.56,355.54,681.66,353.36,679.32,353.36Z" transform="translate(-605.93 -239.97)"/><path id="rect53570" class="cls-6" d="M678.93,361.69H662.11c-2.34,0-4.23,2.18-4.23,4.87h0c0,2.69,1.89,4.88,4.23,4.88h16.82c2.33,0,4.23-2.19,4.23-4.88h0C683.16,363.87,681.26,361.69,678.93,361.69Z" transform="translate(-605.93 -239.97)"/><path id="rect53572" class="cls-6" d="M681.41,370.37H664.59c-2.34,0-4.23,2.18-4.23,4.87h0c0,2.69,1.89,4.87,4.23,4.87h16.82c2.33,0,4.23-2.18,4.23-4.87h0C685.64,372.55,683.74,370.37,681.41,370.37Z" transform="translate(-605.93 -239.97)"/><path id="path53574" class="cls-6" d="M690.08,352l-10.57-.54v2.79l12.39-.41a10.43,10.43,0,0,0-1.82-1.84Z" transform="translate(-605.93 -239.97)"/><path id="path53576" class="cls-7" d="M665.31,361.49v1.58h-6.87v-1.58Z" transform="translate(-605.93 -239.97)"/><path id="path53578" class="cls-7" d="M665.73,371.06v1.59h-5.68v-1.59Z" transform="translate(-605.93 -239.97)"/><path id="path53580" class="cls-7" d="M670,380.09v1.38h-4.45v-1.38Z" transform="translate(-605.93 -239.97)"/><path id="path53639" class="cls-7" d="M703.85,353.47v37h36.5v-1.08H704.93V354.55h35.42v-1.08Z" transform="translate(-605.93 -239.97)"/><text class="cls-12" transform="translate(37.84 43.74)"><tspan class="cls-13">R</tspan><tspan x="28.27" y="0">ONALD</tspan></text></svg>